<mxfile host="app.diagrams.net" modified="2023-12-07T17:05:26.776Z" agent="Mozilla/5.0 (Windows NT 10.0; Win64; x64) AppleWebKit/537.36 (KHTML, like Gecko) Chrome/118.0.0.0 Safari/537.36 OPR/104.0.0.0" version="22.1.7" etag="hoUztj-Lzt_izq2QF-gI" type="github">
  <diagram name="Page-1" id="YUgD7ah6QD1H0PT8F9lG">
    <mxGraphModel>
      <root>
        <mxCell id="0" />
        <mxCell id="1" parent="0" />
      </root>
    </mxGraphModel>
  </diagram>
</mxfile>
